<svg width="42" height="28" viewBox="0 0 42 28" fill="none" xmlns="http://www.w3.org/2000/svg">
<path d="M14.75 27.6667L11.8333 24.75L15.4791 21C11.0347 20.4097 7.37149 19.1945 4.48954 17.3542C1.6076 15.5139 0.166626 13.3958 0.166626 11C0.166626 8.11807 2.17183 5.66147 6.18225 3.63022C10.1927 1.59897 15.1319 0.583344 21 0.583344C26.868 0.583344 31.8073 1.59897 35.8177 3.63022C39.8281 5.66147 41.8333 8.11807 41.8333 11C41.8333 13.1528 40.6788 15.0799 38.3698 16.7813C36.0607 18.4827 33.0486 19.75 29.3333 20.5833V16.3125C32.0069 15.6181 34.0642 14.7587 35.5052 13.7344C36.9461 12.7101 37.6666 11.7986 37.6666 11C37.6666 9.8889 36.1823 8.56946 33.2135 7.04168C30.2448 5.5139 26.1736 4.75001 21 4.75001C15.8263 4.75001 11.7552 5.5139 8.78642 7.04168C5.81767 8.56946 4.33329 9.8889 4.33329 11C4.33329 11.8333 5.21871 12.8316 6.98954 13.9948C8.76038 15.158 11.2777 16.0347 14.5416 16.625L11.8333 13.9167L14.75 11L23.0833 19.3333L14.75 27.6667Z" fill="white"/>
</svg>
