<svg width="17" height="26" viewBox="0 0 17 26" fill="none" xmlns="http://www.w3.org/2000/svg">
<path d="M16.5 17.6875C16.5 19.8542 15.7396 21.6979 14.2188 23.2188C12.6979 24.7396 10.8542 25.5 8.6875 25.5C6.52083 25.5 4.67708 24.7396 3.15625 23.2188C1.63542 21.6979 0.875 19.8542 0.875 17.6875V6.125C0.875 4.5625 1.42188 3.23438 2.51562 2.14062C3.60938 1.04688 4.9375 0.5 6.5 0.5C8.0625 0.5 9.39062 1.04688 10.4844 2.14062C11.5781 3.23438 12.125 4.5625 12.125 6.125V17.0625C12.125 18.0208 11.7917 18.8333 11.125 19.5C10.4583 20.1667 9.64583 20.5 8.6875 20.5C7.72917 20.5 6.91667 20.1667 6.25 19.5C5.58333 18.8333 5.25 18.0208 5.25 17.0625V5.5H7.75V17.0625C7.75 17.3333 7.83854 17.5573 8.01562 17.7344C8.19271 17.9115 8.41667 18 8.6875 18C8.95833 18 9.18229 17.9115 9.35938 17.7344C9.53646 17.5573 9.625 17.3333 9.625 17.0625V6.125C9.60417 5.25 9.29688 4.51042 8.70313 3.90625C8.10938 3.30208 7.375 3 6.5 3C5.625 3 4.88542 3.30208 4.28125 3.90625C3.67708 4.51042 3.375 5.25 3.375 6.125V17.6875C3.35417 19.1667 3.86458 20.4219 4.90625 21.4531C5.94792 22.4844 7.20833 23 8.6875 23C10.1458 23 11.3854 22.4844 12.4062 21.4531C13.4271 20.4219 13.9583 19.1667 14 17.6875V5.5H16.5V17.6875Z" fill="white"/>
</svg>
