<svg width="28" height="42" viewBox="0 0 28 42" fill="none" xmlns="http://www.w3.org/2000/svg">
<path d="M14.4063 35.7917C17.184 34.3333 19.3802 32.2847 20.9948 29.6458C22.6094 27.0069 23.4167 24.125 23.4167 21C23.4167 17.875 22.6094 14.993 20.9948 12.3542C19.3802 9.71527 17.184 7.66666 14.4063 6.20832C15.9688 8.3611 17.1667 10.6962 18 13.2135C18.8333 15.7309 19.25 18.3264 19.25 21C19.25 23.6736 18.8333 26.2691 18 28.7865C17.1667 31.3038 15.9688 33.6389 14.4063 35.7917ZM6.75 41.8333C5.67361 41.8333 4.61458 41.7552 3.57292 41.599C2.53125 41.4427 1.50694 41.2083 0.5 40.8958C4.84028 39.4722 8.3559 36.9375 11.0469 33.2917C13.7378 29.6458 15.0833 25.5486 15.0833 21C15.0833 16.4514 13.7378 12.3542 11.0469 8.70832C8.3559 5.06249 4.84028 2.52777 0.5 1.10416C1.50694 0.791657 2.53125 0.557282 3.57292 0.401032C4.61458 0.244782 5.67361 0.166656 6.75 0.166656C9.63194 0.166656 12.3403 0.713531 14.875 1.80728C17.4097 2.90103 19.6146 4.38541 21.4896 6.26041C23.3646 8.13541 24.849 10.3403 25.9427 12.875C27.0365 15.4097 27.5833 18.118 27.5833 21C27.5833 23.8819 27.0365 26.5903 25.9427 29.125C24.849 31.6597 23.3646 33.8646 21.4896 35.7396C19.6146 37.6146 17.4097 39.0989 14.875 40.1927C12.3403 41.2864 9.63194 41.8333 6.75 41.8333Z" fill="#F9F8FF"/>
</svg>
