<svg width="42" height="38" viewBox="0 0 42 38" fill="none" xmlns="http://www.w3.org/2000/svg">
<path d="M2.24996 37.75V25.25H6.41663V33.5833H14.75V37.75H2.24996ZM27.25 37.75V33.5833H35.5833V25.25H39.75V37.75H27.25ZM10.9479 26.9687L7.97913 24.0521L10.9479 21.0833H0.166626V16.9167H10.9479L7.97913 13.9479L10.9479 11.0312L18.9166 19L10.9479 26.9687ZM31.052 26.9687L23.0833 19L31.052 11.0312L34.0208 13.9479L31.052 16.9167H41.8333V21.0833H31.052L34.0208 24.0521L31.052 26.9687ZM2.24996 12.75V0.25H14.75V4.41667H6.41663V12.75H2.24996ZM35.5833 12.75V4.41667H27.25V0.25H39.75V12.75H35.5833Z" fill="white"/>
</svg>
