<svg width="27" height="27" viewBox="0 0 27 27" fill="none" xmlns="http://www.w3.org/2000/svg">
<path d="M14.25 16L16 14.25L13 11.25V5.5H10.5V12.25L14.25 16ZM9.5 20.2188C9.83333 19.2188 10.4219 18.3906 11.2656 17.7344C12.1094 17.0781 13.0833 16.75 14.1875 16.75H18.9375C19.4375 16.0417 19.8229 15.2656 20.0938 14.4219C20.3646 13.5781 20.5 12.6875 20.5 11.75C20.5 9.3125 19.651 7.24479 17.9531 5.54688C16.2552 3.84896 14.1875 3 11.75 3C9.3125 3 7.24479 3.84896 5.54688 5.54688C3.84896 7.24479 3 9.3125 3 11.75C3 13.7917 3.60938 15.5885 4.82812 17.1406C6.04688 18.6927 7.60417 19.7188 9.5 20.2188ZM14.25 26.75C13.0417 26.75 11.9792 26.3698 11.0625 25.6094C10.1458 24.849 9.57292 23.8958 9.34375 22.75C6.80208 22.2083 4.69271 20.9167 3.01562 18.875C1.33854 16.8333 0.5 14.4583 0.5 11.75C0.5 8.625 1.59375 5.96875 3.78125 3.78125C5.96875 1.59375 8.625 0.5 11.75 0.5C14.875 0.5 17.5312 1.59375 19.7188 3.78125C21.9062 5.96875 23 8.625 23 11.75C23 12.6458 22.901 13.5156 22.7031 14.3594C22.5052 15.2031 22.2188 16 21.8438 16.75C23.2188 16.75 24.3802 17.2396 25.3281 18.2188C26.276 19.1979 26.75 20.375 26.75 21.75C26.75 23.125 26.2604 24.3021 25.2812 25.2812C24.3021 26.2604 23.125 26.75 21.75 26.75H14.25ZM14.25 24.25H21.75C22.4375 24.25 23.026 24.0052 23.5156 23.5156C24.0052 23.026 24.25 22.4375 24.25 21.75C24.25 21.0625 24.0052 20.474 23.5156 19.9844C23.026 19.4948 22.4375 19.25 21.75 19.25H14.25C13.5625 19.25 12.974 19.4948 12.4844 19.9844C11.9948 20.474 11.75 21.0625 11.75 21.75C11.75 22.4375 11.9948 23.026 12.4844 23.5156C12.974 24.0052 13.5625 24.25 14.25 24.25ZM14.25 23C13.8958 23 13.599 22.8802 13.3594 22.6406C13.1198 22.401 13 22.1042 13 21.75C13 21.3958 13.1198 21.099 13.3594 20.8594C13.599 20.6198 13.8958 20.5 14.25 20.5C14.6042 20.5 14.901 20.6198 15.1406 20.8594C15.3802 21.099 15.5 21.3958 15.5 21.75C15.5 22.1042 15.3802 22.401 15.1406 22.6406C14.901 22.8802 14.6042 23 14.25 23ZM18 23C17.6458 23 17.349 22.8802 17.1094 22.6406C16.8698 22.401 16.75 22.1042 16.75 21.75C16.75 21.3958 16.8698 21.099 17.1094 20.8594C17.349 20.6198 17.6458 20.5 18 20.5C18.3542 20.5 18.651 20.6198 18.8906 20.8594C19.1302 21.099 19.25 21.3958 19.25 21.75C19.25 22.1042 19.1302 22.401 18.8906 22.6406C18.651 22.8802 18.3542 23 18 23ZM21.75 23C21.3958 23 21.099 22.8802 20.8594 22.6406C20.6198 22.401 20.5 22.1042 20.5 21.75C20.5 21.3958 20.6198 21.099 20.8594 20.8594C21.099 20.6198 21.3958 20.5 21.75 20.5C22.1042 20.5 22.401 20.6198 22.6406 20.8594C22.8802 21.099 23 21.3958 23 21.75C23 22.1042 22.8802 22.401 22.6406 22.6406C22.401 22.8802 22.1042 23 21.75 23Z" fill="white"/>
</svg>
