<svg width="38" height="34" viewBox="0 0 38 34" fill="none" xmlns="http://www.w3.org/2000/svg">
<path d="M12.75 31.5833V27.4167H37.75V31.5833H12.75ZM12.75 19.0833V14.9167H37.75V19.0833H12.75ZM12.75 6.58334V2.41668H37.75V6.58334H12.75ZM4.41667 33.6667C3.27083 33.6667 2.28993 33.2587 1.47396 32.4427C0.657986 31.6267 0.25 30.6458 0.25 29.5C0.25 28.3542 0.657986 27.3733 1.47396 26.5573C2.28993 25.7413 3.27083 25.3333 4.41667 25.3333C5.5625 25.3333 6.5434 25.7413 7.35938 26.5573C8.17535 27.3733 8.58333 28.3542 8.58333 29.5C8.58333 30.6458 8.17535 31.6267 7.35938 32.4427C6.5434 33.2587 5.5625 33.6667 4.41667 33.6667ZM4.41667 21.1667C3.27083 21.1667 2.28993 20.7587 1.47396 19.9427C0.657986 19.1267 0.25 18.1458 0.25 17C0.25 15.8542 0.657986 14.8733 1.47396 14.0573C2.28993 13.2413 3.27083 12.8333 4.41667 12.8333C5.5625 12.8333 6.5434 13.2413 7.35938 14.0573C8.17535 14.8733 8.58333 15.8542 8.58333 17C8.58333 18.1458 8.17535 19.1267 7.35938 19.9427C6.5434 20.7587 5.5625 21.1667 4.41667 21.1667ZM4.41667 8.66668C3.27083 8.66668 2.28993 8.25869 1.47396 7.44272C0.657986 6.62675 0.25 5.64584 0.25 4.50001C0.25 3.35418 0.657986 2.37327 1.47396 1.5573C2.28993 0.74133 3.27083 0.333344 4.41667 0.333344C5.5625 0.333344 6.5434 0.74133 7.35938 1.5573C8.17535 2.37327 8.58333 3.35418 8.58333 4.50001C8.58333 5.64584 8.17535 6.62675 7.35938 7.44272C6.5434 8.25869 5.5625 8.66668 4.41667 8.66668Z" fill="white"/>
</svg>
