<svg width="46" height="46" viewBox="0 0 46 46" fill="none" xmlns="http://www.w3.org/2000/svg">
<path d="M23 45.9167C21.2639 45.9167 19.7882 45.309 18.573 44.0937C17.3577 42.8785 16.75 41.4028 16.75 39.6667C16.75 39.1805 16.7934 38.7205 16.8802 38.2864C16.9671 37.8524 17.1146 37.4271 17.323 37.0104L8.98962 28.625C8.57296 28.7986 8.13893 28.9462 7.68754 29.0677C7.23615 29.1892 6.7674 29.25 6.28129 29.25C4.54518 29.25 3.07817 28.6424 1.88025 27.4271C0.682332 26.2118 0.083374 24.7361 0.083374 23C0.083374 21.2639 0.682332 19.7882 1.88025 18.5729C3.07817 17.3576 4.54518 16.75 6.28129 16.75C7.63546 16.75 8.85073 17.1406 9.92712 17.9219C11.0035 18.7031 11.75 19.7014 12.1667 20.9167H17.1146C17.4271 20.0139 17.9132 19.2413 18.573 18.599C19.2327 17.9566 20.0139 17.4792 20.9167 17.1667V12.2187C19.7014 11.8021 18.7032 11.0555 17.9219 9.97916C17.1407 8.90277 16.75 7.68749 16.75 6.33333C16.75 4.59722 17.3577 3.12152 18.573 1.90624C19.7882 0.690967 21.2639 0.0833282 23 0.0833282C24.7362 0.0833282 26.2118 0.690967 27.4271 1.90624C28.6424 3.12152 29.25 4.59722 29.25 6.33333C29.25 6.81944 29.198 7.28819 29.0938 7.73958C28.9896 8.19097 28.8334 8.625 28.625 9.04166L36.9584 17.375C37.375 17.1667 37.8091 17.0104 38.2605 16.9062C38.7118 16.8021 39.1806 16.75 39.6667 16.75C41.4028 16.75 42.8785 17.3576 44.0938 18.5729C45.3091 19.7882 45.9167 21.2639 45.9167 23C45.9167 24.7361 45.3091 26.2118 44.0938 27.4271C42.8785 28.6424 41.4028 29.25 39.6667 29.25C38.3125 29.25 37.0973 28.8594 36.0209 28.0781C34.9445 27.2969 34.198 26.2986 33.7813 25.0833H28.8334C28.5209 25.9861 28.0434 26.7674 27.4011 27.4271C26.7587 28.0868 25.9862 28.5729 25.0834 28.8854V33.7812C26.2987 34.1979 27.2969 34.9444 28.0782 36.0208C28.8594 37.0972 29.25 38.3125 29.25 39.6667C29.25 41.4028 28.6424 42.8785 27.4271 44.0937C26.2118 45.309 24.7362 45.9167 23 45.9167ZM20.9167 33.7812V28.8854C20.4653 28.7118 20.0487 28.5035 19.6667 28.2604C19.2848 28.0174 18.9289 27.7309 18.599 27.401C18.2691 27.0712 17.9827 26.7153 17.7396 26.3333C17.4966 25.9514 17.2882 25.5347 17.1146 25.0833H12.1667C12.1667 25.118 12.158 25.1615 12.1407 25.2135L12.0886 25.3698C12.0712 25.4219 12.0539 25.4653 12.0365 25.5L11.9584 25.6562L13.4688 27.1667C14.3021 28 15.1875 28.8941 16.125 29.849C17.0625 30.8038 17.948 31.6979 18.7813 32.5312L20.2917 34.0417C20.3612 34.0069 20.4219 33.9809 20.474 33.9635C20.5261 33.9462 20.5782 33.9201 20.6302 33.8854C20.6823 33.8507 20.7344 33.8246 20.7865 33.8073C20.8386 33.7899 20.882 33.7812 20.9167 33.7812ZM28.8334 20.9167H33.7813C33.7813 20.8472 33.79 20.7865 33.8073 20.7344C33.8247 20.6823 33.8507 20.6302 33.8855 20.5781C33.9202 20.526 33.9462 20.474 33.9636 20.4219C33.9809 20.3698 34.007 20.3264 34.0417 20.2917L25.7084 11.9583C25.6737 11.9931 25.6302 12.0191 25.5782 12.0365C25.5261 12.0538 25.474 12.0799 25.4219 12.1146C25.3698 12.1493 25.3177 12.1753 25.2657 12.1927C25.2136 12.2101 25.1528 12.2187 25.0834 12.2187V17.1667C25.5 17.3055 25.908 17.5052 26.3073 17.7656C26.7066 18.026 27.0625 18.3125 27.375 18.625C27.6875 18.9375 27.974 19.2934 28.2344 19.6927C28.4948 20.092 28.6945 20.5 28.8334 20.9167ZM39.6667 25.0833C40.257 25.0833 40.7518 24.8837 41.1511 24.4844C41.5504 24.0851 41.75 23.5903 41.75 23C41.75 22.4097 41.5504 21.9149 41.1511 21.5156C40.7518 21.1163 40.257 20.9167 39.6667 20.9167C39.0764 20.9167 38.5816 21.1163 38.1823 21.5156C37.783 21.9149 37.5834 22.4097 37.5834 23C37.5834 23.5903 37.783 24.0851 38.1823 24.4844C38.5816 24.8837 39.0764 25.0833 39.6667 25.0833ZM23 25.0833C23.5903 25.0833 24.0851 24.8837 24.4844 24.4844C24.8837 24.0851 25.0834 23.5903 25.0834 23C25.0834 22.4097 24.8837 21.9149 24.4844 21.5156C24.0851 21.1163 23.5903 20.9167 23 20.9167C22.4098 20.9167 21.915 21.1163 21.5157 21.5156C21.1164 21.9149 20.9167 22.4097 20.9167 23C20.9167 23.5903 21.1164 24.0851 21.5157 24.4844C21.915 24.8837 22.4098 25.0833 23 25.0833ZM23 41.75C23.5903 41.75 24.0851 41.5503 24.4844 41.151C24.8837 40.7517 25.0834 40.2569 25.0834 39.6667C25.0834 39.0764 24.8837 38.5816 24.4844 38.1823C24.0851 37.783 23.5903 37.5833 23 37.5833C22.4098 37.5833 21.915 37.783 21.5157 38.1823C21.1164 38.5816 20.9167 39.0764 20.9167 39.6667C20.9167 40.2569 21.1164 40.7517 21.5157 41.151C21.915 41.5503 22.4098 41.75 23 41.75ZM6.33337 25.0833C6.92365 25.0833 7.41844 24.8837 7.81775 24.4844C8.21705 24.0851 8.41671 23.5903 8.41671 23C8.41671 22.4097 8.21705 21.9149 7.81775 21.5156C7.41844 21.1163 6.92365 20.9167 6.33337 20.9167C5.7431 20.9167 5.2483 21.1163 4.849 21.5156C4.44969 21.9149 4.25004 22.4097 4.25004 23C4.25004 23.5903 4.44969 24.0851 4.849 24.4844C5.2483 24.8837 5.7431 25.0833 6.33337 25.0833ZM23 8.41666C23.5903 8.41666 24.0851 8.21701 24.4844 7.8177C24.8837 7.4184 25.0834 6.92361 25.0834 6.33333C25.0834 5.74305 24.8837 5.24826 24.4844 4.84895C24.0851 4.44965 23.5903 4.24999 23 4.24999C22.4098 4.24999 21.915 4.44965 21.5157 4.84895C21.1164 5.24826 20.9167 5.74305 20.9167 6.33333C20.9167 6.92361 21.1164 7.4184 21.5157 7.8177C21.915 8.21701 22.4098 8.41666 23 8.41666Z" fill="#FDFDFF"/>
</svg>
