<svg width="44" height="44" viewBox="0 0 44 44" fill="none" xmlns="http://www.w3.org/2000/svg">
<path d="M8.18746 21L7.56246 17.875C7.14579 17.7014 6.75517 17.5191 6.39058 17.3281C6.026 17.1371 5.65274 16.9028 5.27079 16.625L2.24996 17.5625L0.166626 14.0208L2.56246 11.9375C2.49302 11.4861 2.45829 11.0347 2.45829 10.5833C2.45829 10.1319 2.49302 9.68054 2.56246 9.22916L0.166626 7.14582L2.24996 3.60416L5.27079 4.54166C5.65274 4.26388 6.026 4.0295 6.39058 3.83853C6.75517 3.64756 7.14579 3.46527 7.56246 3.29166L8.18746 0.166656H12.3541L12.9791 3.29166C13.3958 3.46527 13.7864 3.64756 14.151 3.83853C14.5156 4.0295 14.8888 4.26388 15.2708 4.54166L18.2916 3.60416L20.375 7.14582L17.9791 9.22916C18.0486 9.68054 18.0833 10.1319 18.0833 10.5833C18.0833 11.0347 18.0486 11.4861 17.9791 11.9375L20.375 14.0208L18.2916 17.5625L15.2708 16.625C14.8888 16.9028 14.5156 17.1371 14.151 17.3281C13.7864 17.5191 13.3958 17.7014 12.9791 17.875L12.3541 21H8.18746ZM10.2708 14.75C11.4166 14.75 12.3975 14.342 13.2135 13.526C14.0295 12.7101 14.4375 11.7292 14.4375 10.5833C14.4375 9.43749 14.0295 8.45659 13.2135 7.64061C12.3975 6.82464 11.4166 6.41666 10.2708 6.41666C9.12496 6.41666 8.14406 6.82464 7.32808 7.64061C6.51211 8.45659 6.10413 9.43749 6.10413 10.5833C6.10413 11.7292 6.51211 12.7101 7.32808 13.526C8.14406 14.342 9.12496 14.75 10.2708 14.75ZM26.8333 43.9167L25.8958 39.5417C25.3055 39.3333 24.7586 39.0816 24.2552 38.7864C23.7517 38.4913 23.2569 38.1528 22.7708 37.7708L18.6041 39.125L15.6875 34.125L19.0208 31.2083C18.9513 30.5833 18.9166 29.9583 18.9166 29.3333C18.9166 28.7083 18.9513 28.0833 19.0208 27.4583L15.6875 24.5417L18.6041 19.5417L22.7708 20.8958C23.2569 20.5139 23.7517 20.1753 24.2552 19.8802C24.7586 19.5851 25.3055 19.3333 25.8958 19.125L26.8333 14.75H32.6666L33.6041 19.125C34.1944 19.3333 34.7413 19.5851 35.2448 19.8802C35.7482 20.1753 36.243 20.5139 36.7291 20.8958L40.8958 19.5417L43.8125 24.5417L40.4791 27.4583C40.5486 28.0833 40.5833 28.7083 40.5833 29.3333C40.5833 29.9583 40.5486 30.5833 40.4791 31.2083L43.8125 34.125L40.8958 39.125L36.7291 37.7708C36.243 38.1528 35.7482 38.4913 35.2448 38.7864C34.7413 39.0816 34.1944 39.3333 33.6041 39.5417L32.6666 43.9167H26.8333ZM29.75 35.5833C31.4861 35.5833 32.9618 34.9757 34.177 33.7604C35.3923 32.5451 36 31.0694 36 29.3333C36 27.5972 35.3923 26.1215 34.177 24.9062C32.9618 23.691 31.4861 23.0833 29.75 23.0833C28.0138 23.0833 26.5382 23.691 25.3229 24.9062C24.1076 26.1215 23.5 27.5972 23.5 29.3333C23.5 31.0694 24.1076 32.5451 25.3229 33.7604C26.5382 34.9757 28.0138 35.5833 29.75 35.5833Z" fill="white"/>
</svg>
