<svg width="44" height="38" viewBox="0 0 44 38" fill="none" xmlns="http://www.w3.org/2000/svg">
<path d="M35.9792 21.0833H10.6667V16.9167H35.9792L32.75 13.6875L35.6667 10.6667L44 19L35.6667 27.3333L32.75 24.3125L35.9792 21.0833ZM25.25 12.75V4.41667H4.41667V33.5833H25.25V25.25H29.4167V33.5833C29.4167 34.7292 29.0087 35.7101 28.1927 36.526C27.3767 37.342 26.3958 37.75 25.25 37.75H4.41667C3.27083 37.75 2.28993 37.342 1.47396 36.526C0.657986 35.7101 0.25 34.7292 0.25 33.5833V4.41667C0.25 3.27083 0.657986 2.28993 1.47396 1.47396C2.28993 0.657986 3.27083 0.25 4.41667 0.25H25.25C26.3958 0.25 27.3767 0.657986 28.1927 1.47396C29.0087 2.28993 29.4167 3.27083 29.4167 4.41667V12.75H25.25Z" fill="white"/>
</svg>
