<svg width="38" height="38" viewBox="0 0 38 38" fill="none" xmlns="http://www.w3.org/2000/svg">
<path d="M0.25 37.75V33.5833H4.41667V37.75H0.25ZM0.25 29.4167V25.25H4.41667V29.4167H0.25ZM0.25 21.0833V16.9167H4.41667V21.0833H0.25ZM0.25 12.75V8.58333H4.41667V12.75H0.25ZM0.25 4.41667V0.25H4.41667V4.41667H0.25ZM8.58333 37.75V33.5833H12.75V37.75H8.58333ZM8.58333 4.41667V0.25H12.75V4.41667H8.58333ZM16.9167 37.75V33.5833H21.0833V37.75H16.9167ZM25.25 37.75V33.5833H29.4167V37.75H25.25ZM33.5833 37.75V33.5833H37.75V37.75H33.5833ZM33.5833 29.4167V25.25H37.75V29.4167H33.5833ZM37.75 21.0833H33.5833V10.6667C33.5833 8.93056 32.9757 7.45486 31.7604 6.23958C30.5451 5.02431 29.0694 4.41667 27.3333 4.41667H16.9167V0.25H27.3333C30.2153 0.25 32.6719 1.26562 34.7031 3.29687C36.7344 5.32812 37.75 7.78472 37.75 10.6667V21.0833Z" fill="white"/>
</svg>
