<svg width="46" height="32" viewBox="0 0 46 32" fill="none" xmlns="http://www.w3.org/2000/svg">
<path d="M23 25.3333C25.6042 25.3333 27.8177 24.4219 29.6407 22.599C31.4636 20.7761 32.375 18.5625 32.375 15.9583C32.375 13.3542 31.4636 11.1406 29.6407 9.31772C27.8177 7.4948 25.6042 6.58334 23 6.58334C20.3959 6.58334 18.1823 7.4948 16.3594 9.31772C14.5365 11.1406 13.625 13.3542 13.625 15.9583C13.625 18.5625 14.5365 20.7761 16.3594 22.599C18.1823 24.4219 20.3959 25.3333 23 25.3333ZM23 21.5833C21.4375 21.5833 20.1094 21.0365 19.0157 19.9427C17.9219 18.849 17.375 17.5208 17.375 15.9583C17.375 14.3958 17.9219 13.0677 19.0157 11.974C20.1094 10.8802 21.4375 10.3333 23 10.3333C24.5625 10.3333 25.8907 10.8802 26.9844 11.974C28.0782 13.0677 28.625 14.3958 28.625 15.9583C28.625 17.5208 28.0782 18.849 26.9844 19.9427C25.8907 21.0365 24.5625 21.5833 23 21.5833ZM23 31.5833C17.9306 31.5833 13.3125 30.1684 9.14587 27.3386C4.97921 24.5087 1.95837 20.7153 0.083374 15.9583C1.95837 11.2014 4.97921 7.408 9.14587 4.57814C13.3125 1.74827 17.9306 0.333344 23 0.333344C28.0695 0.333344 32.6875 1.74827 36.8542 4.57814C41.0209 7.408 44.0417 11.2014 45.9167 15.9583C44.0417 20.7153 41.0209 24.5087 36.8542 27.3386C32.6875 30.1684 28.0695 31.5833 23 31.5833ZM23 27.4167C26.9237 27.4167 30.5261 26.3837 33.8073 24.3177C37.0886 22.2517 39.5973 19.4653 41.3334 15.9583C39.5973 12.4514 37.0886 9.66494 33.8073 7.59897C30.5261 5.533 26.9237 4.50001 23 4.50001C19.0764 4.50001 15.474 5.533 12.1927 7.59897C8.9115 9.66494 6.40282 12.4514 4.66671 15.9583C6.40282 19.4653 8.9115 22.2517 12.1927 24.3177C15.474 26.3837 19.0764 27.4167 23 27.4167Z" fill="white"/>
</svg>
