<svg width="42" height="42" viewBox="0 0 42 42" fill="none" xmlns="http://www.w3.org/2000/svg">
<path d="M12.6666 32.9792C8.95135 32.0417 5.9392 30.0712 3.63017 27.0677C1.32114 24.0642 0.166626 20.6528 0.166626 16.8333C0.166626 12.1806 1.78121 8.23959 5.01038 5.01042C8.23954 1.78126 12.1805 0.166672 16.8333 0.166672C20.6527 0.166672 24.0642 1.32119 27.0677 3.63021C30.0711 5.93924 32.0416 8.95139 32.9791 12.6667H28.6041C27.7014 10.1667 26.1823 8.15278 24.0468 6.62501C21.9114 5.09723 19.5069 4.33334 16.8333 4.33334C13.3611 4.33334 10.4097 5.54862 7.97913 7.97917C5.54857 10.4097 4.33329 13.3611 4.33329 16.8333C4.33329 19.507 5.09718 21.9115 6.62496 24.0469C8.15274 26.1823 10.1666 27.7014 12.6666 28.6042V32.9792ZM21 41.8333C19.8541 41.8333 18.8732 41.4254 18.0573 40.6094C17.2413 39.7934 16.8333 38.8125 16.8333 37.6667V21C16.8333 19.8542 17.2413 18.8733 18.0573 18.0573C18.8732 17.2413 19.8541 16.8333 21 16.8333H37.6666C38.8125 16.8333 39.7934 17.2413 40.6093 18.0573C41.4253 18.8733 41.8333 19.8542 41.8333 21V37.6667C41.8333 38.8125 41.4253 39.7934 40.6093 40.6094C39.7934 41.4254 38.8125 41.8333 37.6666 41.8333H21ZM21 37.6667H37.6666V21H21V37.6667ZM22.0416 35.5833H36.625L31.8333 29.3333L28.2916 34.0208L25.7916 30.5833L22.0416 35.5833Z" fill="white"/>
</svg>
