<?xml version="1.0" encoding="UTF-8"?>
<!DOCTYPE svg PUBLIC "-//W3C//DTD SVG 1.0//EN" "http://www.w3.org/TR/2001/REC-SVG-20010904/DTD/svg10.dtd">
<!-- Creator: CorelDRAW -->
<svg xmlns="http://www.w3.org/2000/svg" xml:space="preserve" width="215.9mm" height="279.4mm" version="1.0" style="shape-rendering:geometricPrecision; text-rendering:geometricPrecision; image-rendering:optimizeQuality; fill-rule:evenodd; clip-rule:evenodd"
viewBox="0 0 21590 27940"
 xmlns:xlink="http://www.w3.org/1999/xlink"
 xmlns:xodm="http://www.corel.com/coreldraw/odm/2003">
 <defs>
  <style type="text/css">
   <![CDATA[
    .str0 {stroke:black;stroke-width:7.62;stroke-linecap:round;stroke-linejoin:round;stroke-miterlimit:22.926}
    .fil0 {fill:none;fill-rule:nonzero}
   ]]>
  </style>
 </defs>
 <g id="Layer_x0020_1">
  <metadata id="CorelCorpID_0Corel-Layer"/>
  <path class="fil0 str0" d="M9549.58 14925.74c319.94,0 579.29,259.37 579.29,579.29 0,319.92 -259.35,579.25 -579.29,579.25 -319.93,0 -579.27,-259.33 -579.27,-579.25 0,-319.92 259.34,-579.29 579.27,-579.29zm2317.1 -2317.09c319.93,0 579.28,259.35 579.28,579.27 0,319.93 -259.35,579.29 -579.28,579.29 -319.92,0 -579.28,-259.36 -579.28,-579.29 0,-319.92 259.36,-579.27 579.28,-579.27zm0 2317.09c319.93,0 579.28,259.37 579.28,579.29 0,319.92 -259.35,579.25 -579.28,579.25 -319.92,0 -579.28,-259.33 -579.28,-579.25 0,-319.92 259.36,-579.29 579.28,-579.29zm-2317.1 -2317.09c319.94,0 579.29,259.35 579.29,579.27 0,319.93 -259.35,579.29 -579.29,579.29 -319.93,0 -579.27,-259.36 -579.27,-579.29 0,-319.92 259.34,-579.27 579.27,-579.27zm1158.54 -3381.27c2827.22,0 5119.09,2291.91 5119.09,5119.09 0,2827.19 -2291.87,5119.09 -5119.09,5119.09 -2827.18,0 -5119.09,-2291.9 -5119.09,-5119.09 0,-2827.18 2291.91,-5119.09 5119.09,-5119.09z"/>
 </g>
</svg>
