<?xml version="1.0" encoding="UTF-8"?>
<!DOCTYPE svg PUBLIC "-//W3C//DTD SVG 1.0//EN" "http://www.w3.org/TR/2001/REC-SVG-20010904/DTD/svg10.dtd">
<!-- Creator: CorelDRAW -->
<svg xmlns="http://www.w3.org/2000/svg" xml:space="preserve" width="179.769mm" height="259.772mm" version="1.0" style="shape-rendering:geometricPrecision; text-rendering:geometricPrecision; image-rendering:optimizeQuality; fill-rule:evenodd; clip-rule:evenodd"
viewBox="0 0 17976.94 25977.24"
 xmlns:xlink="http://www.w3.org/1999/xlink"
 xmlns:xodm="http://www.corel.com/coreldraw/odm/2003">
 <defs>
  <style type="text/css">
   <![CDATA[
    .str0 {stroke:black;stroke-width:17.64;stroke-linecap:round;stroke-linejoin:round;stroke-miterlimit:2.61313}
    .fil0 {fill:none}
   ]]>
  </style>
 </defs>
 <g id="Layer_x0020_1">
  <metadata id="CorelCorpID_0Corel-Layer"/>
  <path class="fil0 str0" d="M16968.12 24968.42l-37.91 -16466.4c-8.75,-3799 -3747.59,-7642.77 -7941.74,-7490.51 -4194.15,-152.26 -7932.99,3691.51 -7941.74,7490.51l-37.91 16466.4 15959.3 0zm-7044.04 -22380.59c4983.27,982.28 5445.75,4857.94 5451.06,6218.65l-5451.06 0 0 -6218.65zm-7268.82 7893.78l5451.06 0 0 5554.4 -5451.06 0 0 -5554.4zm0 7465.28l5451.06 0 0 5554.4 -5451.06 0 0 -5554.4zm7268.82 0l5451.06 0 0 5554.4 -5451.06 0 0 -5554.4zm-1817.76 -15359.06c-4983.27,982.28 -5445.75,4857.94 -5451.06,6218.65l5451.06 0 0 -6218.65zm1817.76 7893.78l5451.06 0 0 5554.4 -5451.06 0 0 -5554.4z"/>
 </g>
</svg>
