<?xml version="1.0" encoding="UTF-8"?>
<!DOCTYPE svg PUBLIC "-//W3C//DTD SVG 1.0//EN" "http://www.w3.org/TR/2001/REC-SVG-20010904/DTD/svg10.dtd">
<!-- Creator: CorelDRAW -->
<svg xmlns="http://www.w3.org/2000/svg" xml:space="preserve" width="215.9mm" height="279.4mm" version="1.0" style="shape-rendering:geometricPrecision; text-rendering:geometricPrecision; image-rendering:optimizeQuality; fill-rule:evenodd; clip-rule:evenodd"
viewBox="0 0 21590 27940"
 xmlns:xlink="http://www.w3.org/1999/xlink"
 xmlns:xodm="http://www.corel.com/coreldraw/odm/2003">
 <defs>
  <style type="text/css">
   <![CDATA[
    .str0 {stroke:black;stroke-width:7.62;stroke-linecap:round;stroke-linejoin:round;stroke-miterlimit:22.926}
    .fil0 {fill:none;fill-rule:nonzero}
   ]]>
  </style>
 </defs>
 <g id="Layer_x0020_1">
  <metadata id="CorelCorpID_0Corel-Layer"/>
  <path class="fil0 str0" d="M10628.98 9306.65c372.16,0 675.98,282.45 675.98,659.27 0,362.59 -296.63,659.23 -659.21,659.23 -372.11,0 -676.04,-282.42 -676.04,-659.23 0,-362.62 296.7,-659.27 659.27,-659.27zm-5107.74 256.75l3143.53 0c187.38,-902.48 991.34,-1586.09 1947.3,-1586.09 968.74,0 1798.56,626.07 1998.01,1586.09l3143.37 0c1234.67,0 2244.85,1010.18 2244.85,2244.79l0 7268.92c0,1234.66 -1010.18,2244.84 -2244.85,2244.84l-10232.21 0c-1234.67,0 -2244.85,-1010.18 -2244.85,-2244.84l0 -7268.92c0,-1234.61 1010.18,-2244.79 2244.85,-2244.79z"/>
 </g>
</svg>
