<svg width="43" height="43" viewBox="0 0 43 43" fill="none" xmlns="http://www.w3.org/2000/svg">
<mask id="mask0_6_119" style="mask-type:alpha" maskUnits="userSpaceOnUse" x="0" y="0" width="43" height="43">
<rect width="43" height="43" fill="#D9D9D9"/>
</mask>
<g mask="url(#mask0_6_119)">
<path d="M12.0937 37.625L11.6458 33.6833L16.7521 19.6188C17.2 20.0368 17.6852 20.3877 18.2078 20.6714C18.7304 20.955 19.2903 21.1715 19.8875 21.3208L14.9604 34.8479L12.0937 37.625ZM30.9062 37.625L28.0396 34.8479L23.1125 21.3208C23.7097 21.1715 24.2696 20.955 24.7922 20.6714C25.3148 20.3877 25.8 20.0368 26.2479 19.6188L31.3542 33.6833L30.9062 37.625ZM21.5 19.7083C20.0069 19.7083 18.7378 19.1858 17.6927 18.1406C16.6476 17.0955 16.125 15.8264 16.125 14.3333C16.125 13.1687 16.4609 12.1311 17.1328 11.2203C17.8047 10.3095 18.6632 9.675 19.7083 9.31667V5.375H23.2917V9.31667C24.3368 9.675 25.1953 10.3095 25.8672 11.2203C26.5391 12.1311 26.875 13.1687 26.875 14.3333C26.875 15.8264 26.3524 17.0955 25.3073 18.1406C24.2621 19.1858 22.9931 19.7083 21.5 19.7083ZM21.5 16.125C22.0076 16.125 22.4332 15.9533 22.7766 15.6099C23.12 15.2665 23.2917 14.841 23.2917 14.3333C23.2917 13.8257 23.12 13.4002 22.7766 13.0568C22.4332 12.7134 22.0076 12.5417 21.5 12.5417C20.9924 12.5417 20.5668 12.7134 20.2234 13.0568C19.88 13.4002 19.7083 13.8257 19.7083 14.3333C19.7083 14.841 19.88 15.2665 20.2234 15.6099C20.5668 15.9533 20.9924 16.125 21.5 16.125Z" fill="white"/>
</g>
</svg>
