<svg width="43" height="43" viewBox="0 0 43 43" fill="none" xmlns="http://www.w3.org/2000/svg">
<mask id="mask0_6_137" style="mask-type:alpha" maskUnits="userSpaceOnUse" x="0" y="0" width="43" height="43">
<rect width="43" height="43" fill="#D9D9D9"/>
</mask>
<g mask="url(#mask0_6_137)">
<path d="M13.4375 37.625L6.27084 30.4583L8.77917 27.95L11.6458 30.7719V19.7083H5.37501C4.38959 19.7083 3.54601 19.3575 2.84428 18.6557C2.14254 17.954 1.79167 17.1104 1.79167 16.125V5.375H5.37501V16.125H11.6458C12.6313 16.125 13.4748 16.4759 14.1766 17.1776C14.8783 17.8793 15.2292 18.7229 15.2292 19.7083V30.7719L18.051 27.95L20.6042 30.4583L13.4375 37.625ZM29.5625 37.625L22.3958 30.4583L24.9042 27.95L27.7708 30.7719V19.7083C27.7708 18.7229 28.1217 17.8793 28.8234 17.1776C29.5252 16.4759 30.3688 16.125 31.3542 16.125H37.625V5.375H41.2083V16.125C41.2083 17.1104 40.8575 17.954 40.1557 18.6557C39.454 19.3575 38.6104 19.7083 37.625 19.7083H31.3542V30.8167L34.176 27.95L36.7292 30.4583L29.5625 37.625Z" fill="white"/>
</g>
</svg>
