<svg width="43" height="43" viewBox="0 0 43 43" fill="none" xmlns="http://www.w3.org/2000/svg">
<mask id="mask0_6_151" style="mask-type:alpha" maskUnits="userSpaceOnUse" x="0" y="0" width="43" height="43">
<rect width="43" height="43" fill="#D9D9D9"/>
</mask>
<g mask="url(#mask0_6_151)">
<path d="M8.95833 34.0417H12.5417V30.4583H8.95833V34.0417ZM16.125 34.0417H19.7083V30.4583H16.125V34.0417ZM23.2917 34.0417H26.875V30.4583H23.2917V34.0417ZM30.4583 34.0417H34.0417V30.4583H30.4583V34.0417ZM8.95833 12.5417H12.5417V8.95833H8.95833V12.5417ZM8.95833 19.7083H12.5417V16.125H8.95833V19.7083ZM8.95833 26.875H12.5417V23.2917H8.95833V26.875ZM16.125 12.5417H19.7083V8.95833H16.125V12.5417ZM16.125 19.7083H19.7083V16.125H16.125V19.7083ZM16.125 26.875H19.7083V23.2917H16.125V26.875ZM23.2917 12.5417H26.875V8.95833H23.2917V12.5417ZM23.2917 19.7083H26.875V16.125H23.2917V19.7083ZM23.2917 26.875H26.875V23.2917H23.2917V26.875ZM30.4583 12.5417H34.0417V8.95833H30.4583V12.5417ZM30.4583 19.7083H34.0417V16.125H30.4583V19.7083ZM30.4583 26.875H34.0417V23.2917H30.4583V26.875ZM8.95833 37.625C7.97292 37.625 7.12934 37.2741 6.4276 36.5724C5.72587 35.8707 5.375 35.0271 5.375 34.0417V8.95833C5.375 7.97292 5.72587 7.12934 6.4276 6.4276C7.12934 5.72587 7.97292 5.375 8.95833 5.375H34.0417C35.0271 5.375 35.8707 5.72587 36.5724 6.4276C37.2741 7.12934 37.625 7.97292 37.625 8.95833V34.0417C37.625 35.0271 37.2741 35.8707 36.5724 36.5724C35.8707 37.2741 35.0271 37.625 34.0417 37.625H8.95833Z" fill="white"/>
</g>
</svg>
