<svg width="44" height="44" viewBox="0 0 44 44" fill="none" xmlns="http://www.w3.org/2000/svg">
<mask id="mask0_6_113" style="mask-type:alpha" maskUnits="userSpaceOnUse" x="0" y="0" width="44" height="44">
<rect width="43.5" height="43.5" fill="#D9D9D9"/>
</mask>
<g mask="url(#mask0_6_113)">
<path d="M34.2562 38.0625L24.3328 28.1391L28.1391 24.3328L38.0625 34.2563L34.2562 38.0625ZM9.24375 38.0625L5.4375 34.2563L17.9438 21.75L14.8625 18.6688L13.5938 19.9375L11.2828 17.6266V21.3422L10.0141 22.6109L4.53125 17.1281L5.8 15.8594H9.51562L7.25 13.5938L13.6844 7.15938C14.2885 6.55522 14.938 6.1172 15.6328 5.84532C16.3276 5.57345 17.0375 5.43751 17.7625 5.43751C18.4875 5.43751 19.1974 5.57345 19.8922 5.84532C20.587 6.1172 21.2365 6.55522 21.8406 7.15938L17.6719 11.3281L19.9375 13.5938L18.6688 14.8625L21.75 17.9438L25.8281 13.8656C25.7073 13.5333 25.6091 13.1859 25.5336 12.8234C25.4581 12.4609 25.4203 12.0984 25.4203 11.7359C25.4203 9.95366 26.032 8.45079 27.2555 7.22735C28.4789 6.00392 29.9818 5.3922 31.7641 5.3922C32.2172 5.3922 32.6477 5.43751 33.0555 5.52813C33.4633 5.61876 33.8786 5.7547 34.3016 5.93595L29.8156 10.4219L33.0781 13.6844L37.5641 9.19845C37.7755 9.62136 37.919 10.0367 37.9945 10.4445C38.0701 10.8524 38.1078 11.2828 38.1078 11.7359C38.1078 13.5182 37.4961 15.0211 36.2727 16.2445C35.0492 17.468 33.5464 18.0797 31.7641 18.0797C31.4016 18.0797 31.0391 18.0495 30.6766 17.9891C30.3141 17.9287 29.9667 17.8229 29.6344 17.6719L9.24375 38.0625Z" fill="#FEFEFF"/>
</g>
</svg>
