<svg width="43" height="43" viewBox="0 0 43 43" fill="none" xmlns="http://www.w3.org/2000/svg">
<mask id="mask0_6_125" style="mask-type:alpha" maskUnits="userSpaceOnUse" x="0" y="0" width="43" height="43">
<rect width="43" height="43" fill="#D9D9D9"/>
</mask>
<g mask="url(#mask0_6_125)">
<path d="M8.95833 34.0417H11.5115L29.025 16.5281L26.4719 13.975L8.95833 31.4885V34.0417ZM5.375 37.625V30.0104L29.025 6.40521C29.3833 6.07674 29.779 5.82292 30.212 5.64375C30.645 5.46458 31.1003 5.375 31.5781 5.375C32.0559 5.375 32.5188 5.46458 32.9667 5.64375C33.4146 5.82292 33.8028 6.09167 34.1313 6.45L36.5948 8.95833C36.9531 9.28681 37.2144 9.675 37.3786 10.1229C37.5429 10.5708 37.625 11.0188 37.625 11.4667C37.625 11.9444 37.5429 12.3998 37.3786 12.8328C37.2144 13.2658 36.9531 13.6615 36.5948 14.0198L12.9896 37.625H5.375ZM27.726 15.274L26.4719 13.975L29.025 16.5281L27.726 15.274Z" fill="white"/>
</g>
</svg>
