<svg width="43" height="43" viewBox="0 0 43 43" fill="none" xmlns="http://www.w3.org/2000/svg">
<mask id="mask0_6_131" style="mask-type:alpha" maskUnits="userSpaceOnUse" x="0" y="0" width="43" height="43">
<rect width="43" height="43" fill="#D9D9D9"/>
</mask>
<g mask="url(#mask0_6_131)">
<path d="M9.31667 37.625C8.21181 37.625 7.27865 37.2443 6.51719 36.4828C5.75573 35.7213 5.375 34.7882 5.375 33.6833V9.13749C5.375 8.27152 5.77813 7.66683 6.58438 7.32343C7.39063 6.98003 8.09236 7.10694 8.68958 7.70416L12.7208 11.7354L10.3021 14.1542L11.5563 15.4083L13.975 12.9896L18.6333 17.6479L16.2146 20.0667L17.4688 21.3208L19.8875 18.9021L24.5458 23.5604L22.1271 25.9792L23.3813 27.2333L25.8 24.8146L30.4583 29.4729L28.0396 31.8917L29.2938 33.1458L31.7125 30.7271L35.2958 34.3104C35.8931 34.9076 36.02 35.6094 35.6766 36.4156C35.3332 37.2219 34.7285 37.625 33.8625 37.625H9.31667ZM10.75 32.25H25.6208L10.75 17.3792V32.25Z" fill="white"/>
</g>
</svg>
