<svg width="52" height="71" viewBox="0 0 52 71" fill="none" xmlns="http://www.w3.org/2000/svg">
<path d="M41.864 14.7184C41.864 14.0584 41.864 12.3984 41.369 10.0684C40.2069 4.59845 30.884 4.05841 25.219 2.72341C22.8559 2.16652 17.904 1.71841 11.244 2.21341C6.97025 2.53105 5.20397 5.70841 3.87397 7.86841C2.39385 10.2722 1.86397 13.6984 2.02897 17.1934C2.26808 22.2582 6.18397 26.6984 10.679 29.5434C12.6397 30.7844 15.844 30.7184 19.339 30.5534C23.8995 30.3381 25.854 26.0584 27.354 24.0684C28.2114 22.9309 27.864 20.7584 27.534 19.2434C27.204 17.7284 26.544 16.7384 25.709 16.0634C22.4545 13.4326 14.584 13.7184 9.20897 15.8734C5.19228 17.4838 5.86397 28.9784 8.01897 35.3734C9.40091 39.4743 15.844 39.3784 30.639 39.8834C36.9062 40.0973 41.504 41.3784 45.684 43.8734C49.6196 46.2225 48.864 51.6984 49.529 55.8684C49.9244 58.3482 48.204 60.7084 46.709 62.5384C45.2144 64.3679 37.924 64.7184 28.594 64.2234C25.1728 64.0419 24.544 62.7384 24.204 61.0734C23.864 59.4084 23.864 57.0984 24.359 55.5784C24.854 54.0584 25.844 53.3984 27.674 53.0584C29.504 52.7184 32.144 52.7184 33.669 53.2134C35.194 53.7084 35.524 54.6984 35.694 56.6934C35.864 58.6884 35.864 61.6584 35.369 63.5184C34.874 65.3784 33.884 66.0384 32.879 66.5434C25.9765 70.0118 13.884 67.0584 9.21397 63.7334C8.20397 62.7284 7.54397 61.7384 6.87397 60.7334C6.20397 59.7284 5.54397 58.7384 4.86397 57.7184" stroke="white" stroke-width="4" stroke-linecap="round"/>
</svg>
